<svg xmlns="http://www.w3.org/2000/svg" viewBox="0 0 712 123" width="722" height="123">
  <g stroke="none" stroke-width="1" fill="currentColor" fill-rule="evenodd">
    <path xmlns="http://www.w3.org/2000/svg" d="M81.981 97.991H33.887L25.929 121H0.498L43.921 0.0729895H72.12L115.543 121H89.939L81.981 97.991ZM75.407 78.615L57.934 28.099L40.461 78.615H75.407ZM217.063 25.158V121H192.67V108.89C189.556 113.042 185.462 116.329 180.387 118.751C175.428 121.058 170.007 122.211 164.125 122.211C156.628 122.211 149.997 120.654 144.23 117.54C138.463 114.311 133.908 109.64 130.563 103.527C127.334 97.299 125.719 89.9177 125.719 81.383V25.158H149.939V77.923C149.939 85.535 151.842 91.417 155.648 95.569C159.454 99.6057 164.644 101.624 171.218 101.624C177.907 101.624 183.155 99.6057 186.961 95.569C190.767 91.417 192.67 85.535 192.67 77.923V25.158H217.063ZM269.159 45.053V91.417C269.159 94.6463 269.909 97.0107 271.408 98.51C273.023 99.894 275.675 100.586 279.366 100.586H290.611V121H275.387C254.973 121 244.766 111.081 244.766 91.244V45.053H233.348V25.158H244.766V1.45699H269.159V25.158H290.611V45.053H269.159ZM350.589 122.557C341.363 122.557 333.059 120.539 325.677 116.502C318.296 112.35 312.472 106.526 308.204 99.029C304.052 91.5323 301.976 82.8823 301.976 73.079C301.976 63.2757 304.11 54.6257 308.377 47.129C312.76 39.6323 318.7 33.8657 326.196 29.829C333.693 25.677 342.055 23.601 351.281 23.601C360.508 23.601 368.87 25.677 376.366 29.829C383.863 33.8657 389.745 39.6323 394.012 47.129C398.395 54.6257 400.586 63.2757 400.586 73.079C400.586 82.8823 398.337 91.5323 393.839 99.029C389.457 106.526 383.459 112.35 375.847 116.502C368.351 120.539 359.931 122.557 350.589 122.557ZM350.589 101.451C354.972 101.451 359.066 100.413 362.872 98.337C366.794 96.1457 369.908 92.9163 372.214 88.649C374.521 84.3817 375.674 79.1917 375.674 73.079C375.674 63.9677 373.252 56.99 368.408 52.146C363.68 47.1867 357.855 44.707 350.935 44.707C344.015 44.707 338.191 47.1867 333.462 52.146C328.849 56.99 326.542 63.9677 326.542 73.079C326.542 82.1903 328.791 89.2257 333.289 94.185C337.903 99.029 343.669 101.451 350.589 101.451ZM521.633 0.245998L477.345 121H447.935L403.647 0.245998H429.597L462.813 96.261L495.856 0.245998H521.633ZM613.14 71.003C613.14 74.463 612.909 77.577 612.448 80.345H542.383C542.959 87.265 545.381 92.6857 549.649 96.607C553.916 100.528 559.164 102.489 565.392 102.489C574.388 102.489 580.789 98.6253 584.595 90.898H610.718C607.95 100.125 602.644 107.737 594.802 113.734C586.959 119.616 577.329 122.557 565.911 122.557C556.684 122.557 548.38 120.539 540.999 116.502C533.733 112.35 528.024 106.526 523.872 99.029C519.835 91.5323 517.817 82.8823 517.817 73.079C517.817 63.1603 519.835 54.4527 523.872 46.956C527.908 39.4593 533.56 33.6927 540.826 29.656C548.092 25.6193 556.453 23.601 565.911 23.601C575.022 23.601 583.153 25.5617 590.304 29.483C597.57 33.4043 603.163 38.998 607.085 46.264C611.121 53.4147 613.14 61.661 613.14 71.003ZM588.055 64.083C587.939 57.855 585.69 52.8957 581.308 49.205C576.925 45.399 571.562 43.496 565.219 43.496C559.221 43.496 554.147 45.3413 549.995 49.032C545.958 52.6073 543.478 57.6243 542.556 64.083H588.055ZM683.756 121L664.034 91.244L646.561 121H620.611L651.924 72.906L620.265 25.158H647.599L667.148 54.741L684.794 25.158H710.744L679.258 72.906L711.09 121H683.756Z"/>
  </g>
</svg>
